<svg width="586" height="233" viewBox="0 0 586 233" fill="none" xmlns="http://www.w3.org/2000/svg">
<path d="M-1.06231 189.311C23.7977 200.464 58.4765 199.429 71.9377 196.812C107.938 189.812 167.822 160.306 198.938 125.812C219.822 99.3055 233.719 35.9768 202.874 8.13413C186.74 -6.43046 149.938 2.90729 123.938 24.3115C100.299 43.7719 88.4386 101.039 101.217 133.079C105.272 155.641 160.261 206.625 183.856 214.779C261.026 241.446 319.493 233.047 396.258 214.779C450.385 201.898 478.176 183.903 526.438 156.039C544.521 140.499 572.939 121.039 585.439 95.539" stroke="white" stroke-linecap="round" stroke-dasharray="5 9"/>
<path d="M-1.06231 189.311C23.7977 200.464 58.4765 199.429 71.9377 196.812C107.938 189.812 167.822 160.306 198.938 125.812C219.822 99.3055 233.719 35.9768 202.874 8.13413C186.74 -6.43046 149.938 2.90729 123.938 24.3115C100.299 43.7719 88.4386 101.039 101.217 133.079C105.272 155.641 160.261 206.625 183.856 214.779C261.026 241.446 319.493 233.047 396.258 214.779C450.385 201.898 478.176 183.903 526.438 156.039C544.521 140.499 572.939 121.039 585.439 95.539" stroke="black" stroke-opacity="0.2" stroke-linecap="round" stroke-dasharray="5 9"/>
</svg>
