<svg width="869" height="259" viewBox="0 0 869 259" fill="none" xmlns="http://www.w3.org/2000/svg">
<path d="M1 198.174C80.1413 146.131 159.609 96.1003 244.505 53.8162C290.343 30.9858 346.401 4.46234 398.748 1.33295C469.61 -2.90329 548.009 33.6358 591.067 90.8904C615.389 123.233 623.628 171.156 605.887 209.296C593.28 236.399 575.719 253.844 549 258C526.225 261.543 491.441 243.045 486.87 221.809C483.468 206.002 480.382 187.773 486.642 172.222C500.254 138.408 542.427 124.305 575.791 123.446C619.254 122.328 656.478 146.211 689.563 172.222C722.636 198.223 751.815 235.712 797.18 235.712C827.529 235.712 846.865 231.096 869 208.601" stroke="white" stroke-linecap="round" stroke-dasharray="5 9"/>
<path d="M1 198.174C80.1413 146.131 159.609 96.1003 244.505 53.8162C290.343 30.9858 346.401 4.46234 398.748 1.33295C469.61 -2.90329 548.009 33.6358 591.067 90.8904C615.389 123.233 623.628 171.156 605.887 209.296C593.28 236.399 575.719 253.844 549 258C526.225 261.543 491.441 243.045 486.87 221.809C483.468 206.002 480.382 187.773 486.642 172.222C500.254 138.408 542.427 124.305 575.791 123.446C619.254 122.328 656.478 146.211 689.563 172.222C722.636 198.223 751.815 235.712 797.18 235.712C827.529 235.712 846.865 231.096 869 208.601" stroke="black" stroke-opacity="0.2" stroke-linecap="round" stroke-dasharray="5 9"/>
</svg>
