<svg width="58" height="44" viewBox="0 0 58 44" fill="none" xmlns="http://www.w3.org/2000/svg">
<path d="M27.2683 -0.000106812L27.2683 43.5461H-7.62939e-06V42.1986H20.7202H23.4145C23.4145 42.1986 21.5255 41.2369 20.9874 39.606C20.4493 37.9752 20.3314 22.6621 20.3314 22.6621L7.58303 22.6621V21.9774V21.4224L20.3314 21.4224L20.3314 1.56281H0.291588V-0.000106812H27.2683Z" fill="white"/>
<path d="M30.4556 43.5461V-6.10352e-05H57.7239V1.34746H37.0037H34.3094C34.3094 1.34746 36.1984 2.30915 36.7365 3.93999C37.2745 5.57083 37.3924 20.8839 37.3924 20.8839H50.1408V21.5686V22.1236H37.3924V41.9832H57.4323V43.5461H30.4556Z" fill="white"/>
</svg>
