<?xml version="1.0" standalone="no"?>
<!DOCTYPE svg PUBLIC "-//W3C//DTD SVG 20010904//EN"
 "http://www.w3.org/TR/2001/REC-SVG-20010904/DTD/svg10.dtd">
<svg version="1.0" xmlns="http://www.w3.org/2000/svg"
 width="1028.000000pt" height="1028.000000pt" viewBox="0 0 1028.000000 1028.000000"
 preserveAspectRatio="xMidYMid meet">
<metadata>
Created by potrace 1.14, written by Peter Selinger 2001-2017
</metadata>
<g transform="translate(0.000000,1028.000000) scale(0.100000,-0.100000)"
fill="#000000" stroke="none">
<path d="M54 8853 l1 -68 1822 -3 1823 -2 -3 -1783 -2 -1782 -1157 0 -1158 0
0 -67 c0 -65 4 -74 33 -69 5 1 43 1 85 1 101 -1 100 -1 147 -1 22 0 47 0 55 0
8 0 56 0 105 0 50 0 97 0 105 0 8 0 33 0 55 0 22 0 47 0 55 0 8 0 56 0 105 0
50 0 97 0 105 0 8 0 33 0 55 0 22 0 47 0 55 0 8 0 56 0 105 0 50 0 97 0 105 0
8 0 33 0 55 0 22 0 47 0 55 0 8 0 56 0 105 0 50 0 97 0 105 0 8 0 33 0 55 0
22 0 47 0 55 0 8 0 56 0 105 0 50 0 97 0 105 0 8 0 33 0 55 0 22 0 47 0 55 0
8 0 56 0 105 0 109 0 114 0 190 0 33 0 70 0 83 0 22 1 22 -2 23 -117 0 -118 6
-564 13 -960 2 -117 5 -215 8 -218 3 -2 2 -22 -2 -44 -4 -22 -5 -40 -1 -40 3
0 6 -62 7 -138 1 -174 18 -703 28 -917 15 -297 18 -333 41 -565 2 -14 4 -25 5
-25 1 0 3 -11 4 -25 7 -60 19 -98 52 -159 61 -117 162 -223 302 -319 51 -35
92 -64 92 -65 0 -1 -956 -2 -2125 -1 l-2125 1 0 -59 c0 -32 3 -58 8 -59 4 -1
1120 -2 2480 -3 1642 -1 2472 2 2473 9 1 11 1 56 0 95 -1 14 0 100 1 191 0 91
-2 171 -6 177 -3 6 -3 13 2 15 4 3 6 20 5 39 -3 58 -3 80 -1 221 2 77 0 141
-5 144 -4 2 -4 9 0 16 9 14 8 140 -1 155 -4 6 -3 20 1 29 10 21 9 325 -1 341
-3 6 -3 13 2 15 4 3 6 20 5 39 -3 58 -3 80 -1 221 2 77 0 141 -5 144 -4 2 -4
9 0 16 9 14 8 140 -1 155 -4 6 -3 20 1 29 10 21 9 325 -1 341 -3 6 -3 13 2 15
4 3 6 20 5 39 -3 58 -3 80 -1 221 2 77 0 141 -5 144 -4 2 -4 9 0 16 9 14 8
140 -1 155 -4 6 -3 20 1 29 10 21 9 325 -1 341 -3 6 -3 13 2 15 4 3 6 20 5 39
-3 58 -3 80 -1 221 2 77 0 141 -5 144 -4 2 -4 9 0 16 9 14 8 140 -1 155 -4 6
-3 20 1 29 10 21 9 325 -1 341 -3 6 -3 13 2 15 4 3 6 20 5 39 -3 58 -3 80 -1
221 2 77 0 141 -5 144 -4 2 -4 9 0 16 9 14 8 140 -1 155 -4 6 -3 20 1 29 10
21 9 325 -1 341 -3 6 -3 13 2 15 4 3 6 20 5 39 -3 58 -3 80 -1 221 2 77 0 141
-5 144 -4 2 -4 9 0 16 9 14 8 140 -1 155 -4 6 -3 20 1 29 10 21 9 325 -1 341
-3 6 -3 13 2 15 4 3 6 20 5 39 -3 58 -3 80 -1 221 2 77 0 141 -5 144 -4 2 -4
9 0 16 9 14 8 140 -1 155 -4 6 -3 20 1 29 10 21 9 325 -1 341 -3 6 -3 13 2 15
4 3 6 20 5 39 -3 55 -3 79 -2 178 1 52 1 103 0 113 -1 16 -125 17 -2455 17
l-2454 0 2 -67z"/>
<path d="M5296 5147 c1 -2075 2 -3774 3 -3777 2 -8 4896 -6 4901 2 4 4 6 36 5
70 l-1 63 -1816 0 c-999 0 -1820 4 -1824 8 -5 5 -10 3488 -5 3550 1 4 523 7
1160 7 l1159 0 -2 68 c-1 53 -5 66 -16 63 -8 -2 -31 -3 -50 -1 -19 1 -42 2
-50 1 -8 0 -67 0 -130 0 -63 0 -122 0 -130 0 -8 0 -58 0 -110 0 -52 0 -102 0
-110 0 -8 0 -67 0 -130 0 -63 0 -122 0 -130 0 -8 0 -58 0 -110 0 -52 0 -102 0
-110 0 -8 0 -67 0 -130 0 -63 0 -122 0 -130 0 -8 0 -58 0 -110 0 -52 0 -102 0
-110 0 -8 0 -67 0 -130 0 -63 0 -122 0 -130 0 -8 0 -58 0 -110 0 -52 0 -102 0
-110 0 -8 0 -69 0 -135 0 -66 0 -127 1 -135 1 -13 0 -15 34 -16 246 -4 636
-30 1791 -49 2127 -4 81 -11 204 -21 370 -9 160 -21 278 -38 363 -8 36 -51
126 -87 179 -60 90 -249 258 -321 287 -16 6 -28 13 -28 17 0 3 52 6 116 5 64
-1 118 2 120 5 2 4 19 4 36 0 43 -8 312 -6 327 3 6 4 11 4 11 -1 0 -10 932 -9
948 1 7 4 12 4 12 -1 0 -4 53 -7 118 -5 64 1 122 2 127 2 6 0 71 0 145 -1 74
-1 146 0 160 0 14 1 86 1 160 0 74 0 146 0 160 0 14 1 86 1 160 0 74 0 146 -1
160 0 14 1 248 0 520 -2 272 -1 503 1 513 6 9 4 17 4 17 0 0 -6 384 -9 432 -4
3 1 6 28 5 60 l-1 60 -2481 0 -2480 0 1 -3772z"/>
</g>
</svg>
